<?xml version="1.0" encoding="utf-8"?>
<!-- Generator: Adobe Illustrator 19.0.0, SVG Export Plug-In . SVG Version: 6.00 Build 0)  -->
<svg version="1.1" id="Layer_1" xmlns="http://www.w3.org/2000/svg" xmlns:xlink="http://www.w3.org/1999/xlink" x="0px" y="0px"
	 viewBox="0 0 110.2 103.5" style="enable-background:new 0 0 110.2 103.5;" xml:space="preserve">
<style type="text/css">
	.st0{fill:url(#XMLID_194_);}
	.st1{fill:url(#XMLID_195_);}
	.st2{fill:#071C28;}
	.st3{fill:#CAC2CB;stroke:#000000;stroke-miterlimit:10;}
	.st4{fill:url(#XMLID_196_);}
	.st5{fill:url(#XMLID_197_);}
	.st6{fill:url(#XMLID_198_);}
	.st7{fill:url(#XMLID_199_);}
	.st8{fill:url(#XMLID_200_);}
	.st9{fill:url(#XMLID_201_);}
	.st10{fill:url(#XMLID_202_);}
	.st11{fill:url(#XMLID_203_);}
	.st12{fill:url(#XMLID_204_);}
	.st13{fill:#CECCD3;}
	.st14{fill:url(#XMLID_205_);}
	.st15{fill:#666766;}
	.st16{fill:url(#XMLID_206_);}
	.st17{fill:url(#XMLID_207_);}
</style>
<linearGradient id="XMLID_194_" gradientUnits="userSpaceOnUse" x1="-55.1332" y1="-55.2001" x2="26.4173" y2="-55.2001">
	<stop  offset="0.4409" style="stop-color:#E1E1E1"/>
	<stop  offset="0.4892" style="stop-color:#434343"/>
	<stop  offset="0.5376" style="stop-color:#DEDFE0"/>
</linearGradient>
<path id="XMLID_84_" class="st0" d="M22.8-28.1v-22.1c0-4.8-0.5-6.5-1.8-9.4c-1.3-2.8-6.1-6.4-12.3-6C2.1-65.1-1-61.9-1.9-58.8
	c0-1.1,0-2.3,0-3.2c0-1.1,0-2.2,0-3.4c0-2.2,0.1-4.4,0.1-6.6c0-1.8,0-3.5,0-5.3c0-8.8-7.1-16-16-16c-7.8,0-14.9,5.2-15.8,13.2
	c-0.2,2.2-0.3,4.2-0.3,6.4c0,0.9-0.1,1.7-0.1,2.6c0,0.5,0,0.9,0.3,1.3c0.7,1,3,0.7,4.1,0.7c1.6,0,4.3-0.1,5.9-0.1c0.4,0,0.8,0,1-0.3
	c0.2-0.2,0.2-0.6,0.2-0.9c0-2.1-0.8-4.2-0.8-6.3c0-1.6,0.2-3.4,1.7-4.4c1.1-0.8,2.6-0.9,3.8-0.3c2.2,1.1,2.1,3.2,2.1,5.3
	c0,2.3,0,4.6,0,6.9c0,3.9,0,7.8,0,11.7c0-0.7,0.4-7.4-8.3-8.4c-5.5-0.6-8.2-0.5-14.8-0.2c-2.6,0.1-6,1.1-7.9,2.7
	c-1.3,1.2-3.2,3.3-3.3,5.2c-0.3,4-0.5,8.3,1.8,11.7c3.1,4.4,10.2,5.8,15.1,5.9c2.1,0,5,0.1,7,1c2.1,1,2,3,2.1,5.1
	c0.1,1.5,0.3,2.3-0.5,3.6c-1.4,2.5-4.4,3-6.9,3c-2.4-0.1-5.2-0.7-7-2.5c-1.5-1.5-1.4-4-1.3-6.1c0.1-1.5-1-2.5-2.4-2.7
	c-2-0.3-5.1-0.1-8.6-0.4c-2.5-0.3-4.5-0.3-4.5,1.2c0,1.1,2,1,2.1,2.5c0,1.6,0.1,3.2,0.5,5.6c0.3,1.8,1.2,4.3,2.6,6.3
	c3.7,5.1,9.9,6.6,17.7,6.6c3.1,0,6.4-0.1,9.4-1c1.5-0.4,3-1,4.2-2c0.6-0.5,1.9-1.6,2.3-2.4c0.7-1.4,0.6-2.5,0.6-2.6
	c0,0.1,0.1,1.2,0.1,1.3c0,2.6,4,1.8,5.6,1.8c2.7,0,5.4,0,8.1,0c1,0,2.3,0,3.1-0.6c0.6-0.4,1-1.3,0.6-1.9c-0.1-0.3-0.3-0.6-0.6-0.6
	c-3.3,0-2.8-3.9-2.8-4.5c0-1.3,0-2.7,0-4c0-2.6,0-5.3,0-7.9c0-1,0-1.9,0-2.9c0-2.1-0.1-6.7,1.1-8.5c1.2-1.8,3.7-2.7,5.8-2.2
	C6-55,6.7-54.6,7.3-53.9c1.2,1.3,1.3,3.2,1.3,4.9c0,3.9,0.2,9.9,0.2,13.8c0,1.8,0,3.5,0,5.3c0,0.6,0.3,3.7-3.2,4.9
	c-0.5,0.2-0.7,1-0.6,1.6c0.2,0.8,1,1.2,1.7,1.3c2.5,0.4,5.2,0.1,7.7,0.1c2.5,0,5,0,7.5,0c0,0,0.8,0,0.8,0c1.6,0,3.2-0.4,3.6-1.6
	c0.4-1.1-0.4-1.8-1.8-2.2C22.6-26.4,22.8-28.1,22.8-28.1z M-16.6-47.4c-1.8-2.3-7.9-3-13.3-3.1c-1.5,0-2.9,0-4.4-0.1
	c-1.1-0.1-3.6,0-4.3-2.1c-0.5-1.5-0.3-3.6,0.8-4.8c1.1-1.3,3.5-1.2,5.1-1.2c1.7,0,4.1,0.4,4.8,2.2c0.4,1.1,0.1,2.4,0.5,3.5
	c0.1,0.3,0.3,0.6,0.6,0.7c0.2,0.1,0.4,0.1,0.6,0.1c2,0.2,4.1,0.4,6.1,0.3c1,0,4.5,0,4.5,0v6.1C-15.9-46.4-16.2-47-16.6-47.4z"/>
<linearGradient id="XMLID_195_" gradientUnits="userSpaceOnUse" x1="10.7728" y1="-134.9984" x2="92.3233" y2="-134.9984">
	<stop  offset="0.3656" style="stop-color:#E1E1E1"/>
	<stop  offset="0.4892" style="stop-color:#434343"/>
	<stop  offset="0.586" style="stop-color:#DEDFE0"/>
</linearGradient>
<path id="XMLID_55_" class="st1" d="M88.7-107.9V-130c0-4.8-0.5-6.5-1.8-9.4c-1.3-2.8-6.1-6.4-12.3-6c-6.5,0.4-9.7,3.7-10.5,6.7
	c0-1.1,0-2.3,0-3.2c0-1.1,0-2.2,0-3.4c0-2.2,0.1-4.4,0.1-6.6c0-1.8,0-3.5,0-5.3c0-8.8-7.1-16-16-16c-7.8,0-14.9,5.2-15.8,13.2
	c-0.2,2.2-0.3,4.2-0.3,6.4c0,0.9-0.1,1.7-0.1,2.6c0,0.5,0,0.9,0.3,1.3c0.7,1,3,0.7,4.1,0.7c1.6,0,4.3-0.1,5.9-0.1c0.4,0,0.8,0,1-0.3
	c0.2-0.2,0.2-0.6,0.2-0.9c0-2.1-0.8-4.2-0.8-6.3c0-1.6,0.2-3.4,1.7-4.4c1.1-0.8,2.6-0.9,3.8-0.3c2.2,1.1,2.1,3.2,2.1,5.3
	c0,2.3,0,4.6,0,6.9c0,3.9,0,7.8,0,11.7c0-0.7,0.4-7.4-8.3-8.4c-5.5-0.6-8.2-0.5-14.8-0.2c-2.6,0.1-6,1.1-7.9,2.8
	c-1.3,1.2-3.2,3.3-3.3,5.2c-0.3,4-0.5,8.3,1.8,11.7c3.1,4.4,10.2,5.8,15.1,5.9c2.1,0,5,0.1,7,1c2.1,1,2,3,2.1,5.1
	c0.1,1.5,0.3,2.3-0.5,3.6c-1.4,2.5-4.4,3-6.9,3c-2.4-0.1-5.2-0.7-7-2.5c-1.5-1.5-1.4-4-1.3-6.1c0.1-1.5-1-2.5-2.4-2.7
	c-2-0.3-5.1-0.1-8.6-0.4c-2.5-0.3-4.5-0.3-4.5,1.2c0,1.1,2,1,2.1,2.5c0,1.6,0.1,3.2,0.5,5.6c0.3,1.8,1.2,4.3,2.6,6.3
	c3.7,5.1,9.9,6.6,17.7,6.6c3.1,0,6.4-0.1,9.4-1c1.5-0.4,3-1,4.2-2c0.6-0.5,1.9-1.6,2.3-2.4c0.7-1.4,0.6-2.5,0.6-2.6
	c0,0.1,0.1,1.2,0.1,1.3c0,2.6,4,1.8,5.6,1.8c2.7,0,5.4,0,8.1,0c1,0,2.3,0,3.1-0.6c0.6-0.4,1-1.3,0.6-1.9c-0.1-0.3-0.3-0.6-0.6-0.6
	c-3.3,0-2.8-3.9-2.8-4.5c0-1.3,0-2.7,0-4c0-2.6,0-5.3,0-7.9c0-1,0-1.9,0-2.9c0-2.1-0.1-6.7,1.1-8.5c1.2-1.8,3.7-2.7,5.8-2.2
	c0.8,0.2,1.6,0.6,2.1,1.2c1.2,1.3,1.3,3.2,1.3,4.9c0,3.9,0.2,9.9,0.2,13.8c0,1.8,0,3.5,0,5.3c0,0.6,0.3,3.7-3.2,4.9
	c-0.5,0.2-0.7,1-0.6,1.6c0.2,0.8,1,1.2,1.7,1.3c2.5,0.4,5.2,0.1,7.7,0.1c2.5,0,5,0,7.5,0c0,0,0.8,0,0.8,0c1.6,0,3.2-0.4,3.6-1.6
	c0.4-1.1-0.4-1.8-1.8-2.2C88.5-106.2,88.7-107.9,88.7-107.9z M49.3-127.2c-1.8-2.3-7.9-3-13.3-3.1c-1.5,0-2.9,0-4.4-0.1
	c-1.1-0.1-3.6,0-4.3-2.1c-0.5-1.5-0.3-3.6,0.8-4.8c1.1-1.3,3.5-1.2,5.1-1.2c1.7,0,4.1,0.4,4.8,2.2c0.4,1.1,0.1,2.4,0.5,3.5
	c0.1,0.3,0.3,0.6,0.6,0.7c0.2,0.1,0.4,0.1,0.6,0.1c2,0.2,4.1,0.4,6.1,0.3c1,0,4.5,0,4.5,0v6.1C50-126.2,49.7-126.8,49.3-127.2z"/>
<path id="XMLID_29_" class="st2" d="M136.3-126.8v-89.6c0-3.1,2.5-5.5,5.5-5.5H216c3.1,0,5.5,2.5,5.5,5.5v89.6
	c0,3.1-2.5,5.5-5.5,5.5h-74.2C138.7-121.3,136.3-123.8,136.3-126.8z"/>
<rect id="XMLID_1_" x="649.3" y="-191.4" class="st3" width="394.5" height="426"/>
<path id="XMLID_8_" d="M156.1,34.9l14.2,0.1c-2.1,2-1,8.5,2.6,9.8c1.4,0.5,2.9,0.6,4.9,0.6c2.2,0,4-0.7,5.2-1.7c0.9-0.7,2-2.8,2-3.9
	c0-1.2,0.2-3.7-2-5.7c-1.4-1.3-3.2-1.7-7-2.4c-5.7-1-8.6-1.5-11.1-2c-2.3-0.5-5.1-2-6.6-4c-1.5-2-2.3-3.7-2.3-6.3
	c0-2.8,0.8-5.2,2.5-7.3c1.6-2,3.9-3.6,6.8-4.6c2.9-1,6.7-1.5,11.5-1.5c5.1,0,8.9,0.4,11.3,1.2c2.4,0.8,3.1,1.4,4.7,3
	c1.6,1.6,1.8,6,1.6,9l-11.2,0c0.2-1.4-0.3-4.1-2.6-5.1c-1.4-0.6-2.7-0.6-4.5-0.6c-1.8,0-3.2,0.6-4.1,1.2s-1.5,2.1-1.5,3
	c0,1,0.5,2.2,1.6,2.7c1.1,0.5,3.6,0.8,7.3,0.8c5.4,0,10.2,0.4,12.6,2c6.8,4.6,5.2,23-0.8,27.5c-2.8,2.1-6.4,4.6-12,5.2
	c-7.8,0.8-16-0.7-20.2-6.2C153.8,43.2,155.6,36.7,156.1,34.9z"/>
<rect id="XMLID_6_" x="663.2" y="-123.1" style="fill:none;" width="183.3" height="100.3"/>
<text id="XMLID_5_" transform="matrix(1 0 0 1 663.2003 -96.2798)" style="font-family:'Marchand-de-Venise'; font-size:70px;">sh</text>
<path id="XMLID_12_" d="M228.4,16.4c-2.2-2.3-5.3-4.1-9.1-4.1c-2.6,0-5.4,0.8-7.3,1.6c-1.9,0.8-3.6,2.3-4.9,4.5V-5.1
	c0-8.8-7.1-16-16-16h0c-8.8,0-16,7.1-16,16v8.2h10.5v-8.4c0-2.1,1.7-3.8,3.8-3.8l0,0c2.1,0,3.8,1.7,3.8,3.8v55.3h13.9V32.6
	c0-3.3,0.5-5.6,1.6-6.9c1-1.3,2.4-1.9,4.1-1.9c1.5,0,2.7,0.5,3.6,1.4c0.8,0.9,1.3,2.6,1.3,4.8v20h14V27
	C231.7,22.2,230.6,18.7,228.4,16.4z"/>
<path id="XMLID_2_" d="M207.2,42.9c0,0-0.3,4.6,3.1,4.8c1.9,0.1,2.7,2.3,1.3,2.3c-1.4,0-5.5,0-5.5,0L207.2,42.9z"/>
<path id="XMLID_7_" d="M231.7,42.9c0,0-0.3,4.6,3.1,4.8c1.9,0.1,2.7,2.3,1.3,2.3c-1.4,0-5.5,0-5.5,0L231.7,42.9z"/>
<path id="XMLID_11_" d="M156.7,42.1c0,0,0.3-4.6-3.1-4.8c-1.9-0.1-2.7-2.3-1.3-2.3s5.5,0,5.5,0L156.7,42.1z"/>
<path id="XMLID_10_" d="M217.7,42.9c0,0,0.3,4.6-3.1,4.8c-1.9,0.1-2.7,2.3-1.3,2.3c1.4,0,5.5,0,5.5,0L217.7,42.9z"/>
<path id="XMLID_18_" d="M298.6,28.8l7.2,0c1.5,0,2.5,1.3,2.4,2.7c-0.2,2.7,1.1,6.1,3.6,7.1c1.4,0.5,2.9,0.6,4.9,0.6
	c2.2,0,4-0.7,5.2-1.7c0.9-0.7,2-2.8,2-3.9c0-1.2,0.2-3.7-2-5.7c-1.4-1.3-3.2-1.7-7-2.4c-5.7-1-8.6-1.5-11.1-2c-2.3-0.5-5.1-2-6.6-4
	c-1.5-2-2.3-3.7-2.3-6.3c0-2.8,0.8-5.2,2.5-7.3c1.6-2,3.9-3.6,6.8-4.6c2.9-1,4.7-1.5,9.5-1.5c5.1,0,8.9,0.4,11.3,1.2
	c2.4,0.8,4.9,1.9,6.2,3.8c1.8,2.6,1.4,5.2,1.2,8.2l-9.7,0c-0.8,0-1.6-0.7-1.7-1.5c-0.3-1.4-0.1-2.5-1.9-3.5c-1.3-0.8-2.2-0.7-4-0.7
	c-1.8,0-3.2,0.6-4.1,1.2s-1.5,2.1-1.5,3c0,1,0.5,2.2,1.6,2.7c1.1,0.5,3.5,1.1,7.1,1.2c5.4,0,11.5,0.8,13.3,3.1
	c3.6,4.6,4,20.9-1,26.5c-2.2,2.4-7,5.7-14,5.7c-7.8,0-14-1.7-17.7-6.8c-1.4-2-2.3-4.6-2.6-6.3C294.9,31.2,298.3,29.7,298.6,28.8z"/>
<path id="XMLID_17_" d="M367.4,5.3c-2.2-2.3-5.5-4.7-9.3-4.7c-2.6,0-5.4,0.4-7.3,1.3c-1.9,0.8-3.8,2.6-4.6,5.4v-18.5
	c0-8.8-7.1-16-16-16h0c-8.8,0-15.9,6.2-15.9,15l0,7.8c0,0.8,0.6,1.4,1.4,1.4h8.2c0.5,0,0.9-0.4,0.9-0.9v-7.9c0-2.1,1.7-3.8,3.8-3.8
	l0,0c2,0,3.7,1.7,3.7,3.7v54c0,1,0.8,1.8,1.8,1.8h12.1V21.5c0-3.3,0.5-5.6,1.6-6.9c1-1.3,2.4-1.9,4.1-1.9c1.5,0,2.7,0.5,3.6,1.4
	c0.8,0.9,1.3,2.6,1.3,4.8v25h14V15.9C370.7,11.1,369.6,7.6,367.4,5.3z"/>
<path id="XMLID_14_" d="M301,29.1c0,0-6.7-1-7.5,1.3c-0.4,1.2,1.9,1.7,3.4,2.2c1.6,0.5,3,1.2,4.3-0.1C303.8,30,301,29.1,301,29.1z"
	/>
<path id="XMLID_20_" d="M343,43.7c0,0,6,1.1,6.8-1.3c0.4-1.1-0.8-1.6-2.1-2.2c-1.6-0.8-3.6-1.3-5,0.1C340.2,42.8,343,43.7,343,43.7z
	"/>
<path id="XMLID_13_" d="M253.9-7c2.7,0.2,4.9,0.4,6.3,0.5c2.7,0.3,4.8,0.7,5.5-0.4c0.2-0.3,0.3-0.7,0.3-0.8c0-1.2-1.5-2.2-3.1-3.2
	c-2.5-1.7-5.5-3.1-8.4-1.4c-0.3,0.2-2.6,1.3-2.5,3C252.2-8,253.7-7.2,253.9-7z"/>
<path id="XMLID_21_" d="M354.2,43.7c0,0,6,1.1,6.8-1.3c0.5-1.4-1.1-2.8-3.1-3.1c-1.4-0.3-2.2,0.6-3.4,1.1c-1.5,0.5-1.8,1.9-1.5,2.4
	C353.3,43.4,354.2,43.7,354.2,43.7z"/>
<path id="XMLID_22_" d="M367.4,43.7c0,0,6,1.1,6.8-1.3c0.8-2.5-4.6-4.6-7.1-2.1C364.6,42.8,367.4,43.7,367.4,43.7z"/>
<path id="XMLID_3_" d="M296.2,48.8"/>
<path id="XMLID_32_" d="M402.9-130.1v-22.1c0-4.8-0.5-6.5-1.8-9.4c-1.3-2.8-6.1-6.4-12.3-6c-6.5,0.4-9.7,3.7-10.5,6.7
	c0-1.1,0-2.3,0-3.2c0-1.1,0-2.2,0-3.4c0-2.2,0.1-4.4,0.1-6.6c0-1.8,0-3.5,0-5.3c0-8.8-7.1-16-16-16c-7.8,0-14.9,5.2-15.8,13.2
	c-0.2,2.2-0.3,4.2-0.3,6.4c0,0.9-0.1,1.7-0.1,2.6c0,0.5,0,0.9,0.3,1.3c0.7,1,3,0.7,4.1,0.7c1.6,0,4.3-0.1,5.9-0.1c0.4,0,0.8,0,1-0.3
	c0.2-0.2,0.2-0.6,0.2-0.9c0-2.1-0.8-4.2-0.8-6.3c0-1.6,0.2-3.4,1.7-4.4c1.1-0.8,2.6-0.9,3.8-0.3c2.2,1.1,2.1,3.2,2.1,5.3
	c0,2.3,0,4.6,0,6.9c0,3.9,0,7.8,0,11.7c0-0.7,0.4-7.4-8.3-8.4c-5.5-0.6-8.2-0.5-14.8-0.2c-2.6,0.1-6,1.1-7.9,2.8
	c-1.3,1.2-3.2,3.3-3.3,5.2c-0.3,4-0.5,8.3,1.8,11.7c3.1,4.4,10.2,5.8,15.1,5.9c2.1,0,5,0.1,7,1c2.1,1,2,3,2.1,5.1
	c0.1,1.5,0.3,2.3-0.5,3.6c-1.4,2.5-4.4,3-6.9,3c-2.4-0.1-5.2-0.7-7-2.5c-1.5-1.5-1.4-4-1.3-6.1c0.1-1.5-1-2.5-2.4-2.7
	c-2-0.3-5.1-0.1-8.6-0.4c-2.5-0.3-4.5-0.3-4.5,1.2c0,1.1,2,1,2.1,2.5c0,1.6,0.1,3.2,0.5,5.6c0.3,1.8,1.2,4.3,2.6,6.3
	c3.7,5.1,9.9,6.6,17.7,6.6c3.1,0,6.4-0.1,9.4-1c1.5-0.4,3-1,4.2-2c0.6-0.5,1.9-1.6,2.3-2.4c0.7-1.4,0.6-2.5,0.6-2.6
	c0,0.1,0.1,1.2,0.1,1.3c0,2.6,4,1.8,5.6,1.8c2.7,0,5.4,0,8.1,0c1,0,2.3,0,3.1-0.6c0.6-0.4,1-1.3,0.6-1.9c-0.1-0.3-0.3-0.6-0.6-0.6
	c-3.3,0-2.8-3.9-2.8-4.5c0-1.3,0-2.7,0-4c0-2.6,0-5.3,0-7.9c0-1,0-1.9,0-2.9c0-2.1-0.1-6.7,1.1-8.5c1.2-1.8,3.7-2.7,5.8-2.2
	c0.8,0.2,1.6,0.6,2.1,1.2c1.2,1.3,1.3,3.2,1.3,4.9c0,3.9,0.2,9.9,0.2,13.8c0,1.8,0,3.5,0,5.3c0,0.6,0.3,3.7-3.2,4.9
	c-0.5,0.2-0.7,1-0.6,1.6c0.2,0.8,1,1.2,1.7,1.3c2.5,0.4,5.2,0.1,7.7,0.1c2.5,0,5,0,7.5,0c0,0,0.8,0,0.8,0c1.6,0,3.2-0.4,3.6-1.6
	c0.4-1.1-0.4-1.8-1.8-2.2C402.7-128.3,402.9-130.1,402.9-130.1z M363.5-149.4c-1.8-2.3-7.9-3-13.3-3.1c-1.5,0-2.9,0-4.4-0.1
	c-1.1-0.1-3.6,0-4.3-2.1c-0.5-1.5-0.3-3.6,0.8-4.8c1.1-1.3,3.5-1.2,5.1-1.2c1.7,0,4.1,0.4,4.8,2.2c0.4,1.1,0.1,2.4,0.5,3.5
	c0.1,0.3,0.3,0.6,0.6,0.7c0.2,0.1,0.4,0.1,0.6,0.1c2,0.2,4.1,0.4,6.1,0.3c1,0,4.5,0,4.5,0v6.1C364.2-148.4,363.9-148.9,363.5-149.4z
	"/>
<linearGradient id="XMLID_196_" gradientUnits="userSpaceOnUse" x1="54.6718" y1="87.8156" x2="53.5051" y2="15.4822">
	<stop  offset="0" style="stop-color:#A9A9A9"/>
	<stop  offset="0.9946" style="stop-color:#B6B8BA"/>
</linearGradient>
<path id="XMLID_33_" class="st4" d="M51.1,12.1c8.7,0,15.8,7,16,15.7c0,1.8,0,3.6,0,5.4c0,2.3-0.1,4.5-0.1,6.8c0,1.1,0,2.2,0,3.4
	c0,0.9,0,2.1,0,3.2c0.8-3.1,4-6.3,10.5-6.7c0.3,0,0.6,0,0.9,0c5.8,0,10.2,3.4,11.4,6.1c1.3,2.9,1.8,4.6,1.8,9.4v22.1
	c0,0-0.2,1.7,1.7,2.2c1.4,0.4,2.2,1.1,1.8,2.2c-0.4,1.2-2,1.5-3.6,1.6c0,0-0.8,0-0.8,0c-2.5,0-5,0-7.5,0c-1.4,0-2.9,0.1-4.3,0.1
	c-1.2,0-2.3,0-3.4-0.2c-0.8-0.1-1.6-0.6-1.7-1.3c-0.1-0.6,0-1.4,0.6-1.6c3.4-1.2,3.2-4.3,3.2-4.9c0-1.8,0-3.5,0-5.3
	c0-3.9-0.2-9.9-0.2-13.8c0-1.7-0.2-3.6-1.3-4.9c-0.6-0.6-1.3-1-2.1-1.2c-0.4-0.1-0.8-0.2-1.2-0.2c-1.7,0-3.6,0.9-4.5,2.3
	c-1.2,1.8-1.1,6.4-1.1,8.5c0,1,0,1.9,0,2.9c0,2.6,0,5.3,0,7.9c0,1.3,0,2.7,0,4c0,0.6-0.5,4.5,2.7,4.5c0,0,0,0,0,0c0,0,0,0,0,0
	c0.3,0,0.5,0.3,0.6,0.6c0.4,0.6,0,1.5-0.6,1.9c-0.9,0.6-2.1,0.6-3.1,0.6c-2.7,0-5.4,0-8.1,0c-0.6,0-1.6,0.1-2.5,0.1
	c-1.5,0-3-0.3-3-1.9c0-0.1,0-1.2-0.1-1.3c0,0,0.1,1.2-0.6,2.6c-0.4,0.9-1.7,2-2.3,2.4c-1.3,0.9-2.7,1.6-4.2,2c-3,0.9-6.3,1-9.4,1
	c-7.8,0-14-1.5-17.7-6.6c-1.4-2-2.3-4.6-2.6-6.3c-0.4-2.4-0.4-4-0.5-5.6c0-1.5-2.1-1.4-2.1-2.5c0-1,0.9-1.3,2.3-1.3
	c0.6,0,1.4,0.1,2.2,0.1c3.5,0.4,6.5,0.1,8.6,0.4c1.4,0.2,2.5,1.6,2.4,3.1c-0.1,2-0.1,4.3,1.3,5.8c1.8,1.8,4.7,2.4,7,2.5
	c0.1,0,0.2,0,0.3,0c2.4,0,5.3-0.6,6.6-3c0.4-0.8,0.6-1.7,0.5-2.6c-0.2-2.5,0.2-4.9-2.2-6.1c-2-0.9-4.9-1-7-1c-4.9,0-12-1.4-15.1-5.9
	c-2.4-3.3-2.3-6.8-1.9-10.8c0.2-1.9,2.1-4.9,3.4-6.1c1.9-1.7,5.7-3,8.3-3.4c3.3-0.5,5.1-0.3,7.2-0.2c2.5,0.2,4.4,0.4,7.3,0.9
	c7.6,1.4,8.2,6.1,8.3,7.8c0,0.2,0,0.4,0,0.5c0-0.1,0-0.3,0-0.5c0-3.7,0-7.4,0-11.1c0-2.3,0-4.6,0-6.9c0-2,0.1-4.2-2.1-5.3
	c-0.5-0.3-1.1-0.4-1.7-0.4c-0.8,0-1.5,0.2-2.2,0.7c-1.5,1-1.7,2.8-1.7,4.4c0,2.1,0.7,3.5,0.7,5.6c0,0.3,0,0.7-0.2,0.9
	c-0.2,0.3-0.7,0.3-1,0.3c0,0,0,0,0,0c0,0,0,0-0.1,0c-1.6,0-4.2,0.1-5.8,0.1c-0.4,0-1,0.1-1.7,0.1c-1,0-2-0.1-2.4-0.7
	c-0.3-0.4-0.3-0.9-0.3-1.3c0-0.9,0-1.7,0.1-2.6c0-2.2,0.2-3.6,0.5-5.8C36.2,17.3,43.3,12.1,51.1,12.1 M51.1,10.1
	c-9.2,0-17.5,6.2-18.4,14.7c-0.2,2.2-0.3,4.3-0.4,6.6c0,0.3,0,0.6,0,0.9c0,0.6,0,1.2,0,1.8c0,0.5,0,1.6,0.8,2.6c0,0,0,0,0,0
	c-1.2-0.5-4,0.2-6.3,0.8c-2.6,0.7-4.4,1.6-6.9,3.7c-1.9,1.9-3.3,4.8-3.5,7.9c-0.4,4.3,0,7.1,2.7,11c1.2,1.7,2.8,3,4.6,3.9
	c-0.2,0-0.3,0-0.5,0c-1.4,0-3.1-0.1-4.8-0.2c-0.7-0.1-1.6-0.2-2.4-0.2c-1,0-2.5,0.1-3.5,1.1c-0.6,0.6-0.9,1.4-0.9,2.2
	c0,1.6,1.3,2.4,1.9,2.7c0.1,0,0.1,0.1,0.2,0.1l0,0.1c0,1.5,0.1,3.2,0.5,5.5c0.2,0.9,0.9,4.2,3,7.1c4.7,6.6,12.8,7.5,19.3,7.5
	c3,0,6.6-0.1,9.9-1c1.9-0.5,3.5-1.3,4.9-2.3c0.4-0.3,1.3-1,2.1-1.9c0.7,0.3,1.6,0.5,2.8,0.5c0.6,0,1.2,0,1.7-0.1c0.3,0,0.6,0,0.8,0
	l8.1,0c1.2,0,2.9,0,4.3-0.9c0.5-0.3,0.9-0.7,1.1-1.2c0.6,1,1.7,1.8,3.1,2c1.1,0.2,2.3,0.2,3.7,0.2c0.8,0,1.5,0,2.3,0
	c0.7,0,1.4,0,2.1,0l1.6,0c2,0,3.9,0,5.9,0c0.2,0,0.5,0,0.9,0l0,0c3.7-0.1,5-1.7,5.4-3c0.3-0.9,0.2-1.9-0.2-2.7c-0.5-1-1.6-1.7-3-2.1
	c-0.2,0-0.2-0.1-0.2-0.1l0-0.1l0-0.1l0.7-22c0-5-0.5-7-2-10.2c-1.9-4.3-7.3-7.7-13.8-7.7c-0.3,0-0.7,0-1,0c-3.6,0.2-6.1,1.5-8,2.9
	c0-0.2,0-0.3,0-0.5c0-0.8,0-1.5,0-2.3c0-1.4,0.1-2.9,0.1-4.3v-5.3C69.5,17.8,61,10.1,51.1,10.1L51.1,10.1z M47.3,37.7
	c0.3-0.1,1.8-0.9,1.5-2.9c0-1.3-0.2-2.4-0.5-3.5c-0.2-1-1.4-4.3,0.2-5.5c0.3-0.2,0.6-0.3,1-0.3c0.3,0,0.5,0.1,0.8,0.2
	c0.8,0.4,0.9,1,0.9,3.2l0,7.2l0,3.2C50.3,38.2,49,37.9,47.3,37.7L47.3,37.7z M69.6,78.1c-0.1,0-0.4,0-0.5-0.1
	c-0.1-0.1-0.4-0.6-0.3-2.1c0-0.1,0-0.2,0-0.3c0-1.3,0-2.7,0-4c0-1,0-2,0-3c0-1.6,0-3.2,0-4.8v-2.9l0-0.5c0-1.6,0-5.7,0.8-6.9
	c0.6-0.8,1.7-1.4,2.9-1.4c0.3,0,0.5,0,0.7,0.1c0.5,0.1,0.9,0.4,1.2,0.6c0.7,0.8,0.8,2.3,0.8,3.5c0,2,0,4.5,0.1,6.9
	c0,2.4,0.1,4.9,0.1,6.9v5.3l0,0.2c0,1.6-0.5,2.4-1.8,2.8c-0.7,0.2-1.2,0.7-1.5,1.3C71.7,79.2,71,78.1,69.6,78.1
	C69.6,78.1,69.6,78.1,69.6,78.1L69.6,78.1z M37.9,75.6c-0.1,0-0.2,0-0.3,0c-2.4-0.1-4.5-0.8-5.7-1.9c-0.9-0.9-0.8-2.7-0.7-4.6
	c0.1-1-0.2-2-0.7-2.8c2.3,0.4,4.3,0.5,5.4,0.5c1.6,0,4.5,0,6.1,0.8c0.8,0.4,0.9,1,1,3.1l0,0.3c0,0.3,0,0.5,0,0.7
	c0.1,1,0.1,1.2-0.3,1.8C41.8,75.2,39.6,75.6,37.9,75.6L37.9,75.6z"/>
<linearGradient id="XMLID_197_" gradientUnits="userSpaceOnUse" x1="102.5384" y1="-69.0046" x2="184.0889" y2="-69.0046">
	<stop  offset="0.3656" style="stop-color:#E1E1E1"/>
	<stop  offset="0.4892" style="stop-color:#434343"/>
	<stop  offset="0.586" style="stop-color:#B6B8BA"/>
</linearGradient>
<path id="XMLID_44_" class="st5" d="M180.4-41.9V-64c0-4.8-0.5-6.5-1.8-9.4c-1.3-2.8-6.1-6.4-12.3-6c-6.5,0.4-9.7,3.7-10.5,6.7
	c0-1.1,0-2.3,0-3.2c0-1.1,0-2.2,0-3.4c0-2.2,0.1-4.4,0.1-6.6c0-1.8,0-3.5,0-5.3c0-8.8-7.1-16-16-16c-7.8,0-14.9,5.2-15.8,13.2
	c-0.2,2.2-0.3,4.2-0.3,6.4c0,0.9-0.1,1.7-0.1,2.6c0,0.5,0,0.9,0.3,1.3c0.7,1,3,0.7,4.1,0.7c1.6,0,4.3-0.1,5.9-0.1c0.4,0,0.8,0,1-0.3
	c0.2-0.2,0.2-0.6,0.2-0.9c0-2.1-0.8-4.2-0.8-6.3c0-1.6,0.2-3.4,1.7-4.4c1.1-0.8,2.6-0.9,3.8-0.3c2.2,1.1,2.1,3.2,2.1,5.3
	c0,2.3,0,4.6,0,6.9c0,3.9,0,7.8,0,11.7c0-0.7,0.4-7.4-8.3-8.4c-5.5-0.6-8.2-0.5-14.8-0.2c-2.6,0.1-6,1.1-7.9,2.8
	c-1.3,1.2-3.2,3.3-3.3,5.2c-0.3,4-0.5,8.3,1.8,11.7c3.1,4.4,10.2,5.8,15.1,5.9c2.1,0,5,0.1,7,1c2.1,1,2,3,2.1,5.1
	c0.1,1.5,0.3,2.3-0.5,3.6c-1.4,2.5-4.4,3-6.9,3c-2.4-0.1-5.2-0.7-7-2.5c-1.5-1.5-1.4-4-1.3-6.1c0.1-1.5-1-2.5-2.4-2.7
	c-2-0.3-5.1-0.1-8.6-0.4c-2.5-0.3-4.5-0.3-4.5,1.2c0,1.1,2,1,2.1,2.5c0,1.6,0.1,3.2,0.5,5.6c0.3,1.8,1.2,4.3,2.6,6.3
	c3.7,5.1,9.9,6.6,17.7,6.6c3.1,0,6.4-0.1,9.4-1c1.5-0.4,3-1,4.2-2c0.6-0.5,1.9-1.6,2.3-2.4c0.7-1.4,0.6-2.5,0.6-2.6
	c0,0.1,0.1,1.2,0.1,1.3c0,2.6,4,1.8,5.6,1.8c2.7,0,5.4,0,8.1,0c1,0,2.3,0,3.1-0.6c0.6-0.4,1-1.3,0.6-1.9c-0.1-0.3-0.3-0.6-0.6-0.6
	c-3.3,0-2.8-3.9-2.8-4.5c0-1.3,0-2.7,0-4c0-2.6,0-5.3,0-7.9c0-1,0-1.9,0-2.9c0-2.1-0.1-6.7,1.1-8.5c1.2-1.8,3.7-2.7,5.8-2.2
	c0.8,0.2,1.6,0.6,2.1,1.2c1.2,1.3,1.3,3.2,1.3,4.9c0,3.9,0.2,9.9,0.2,13.8c0,1.8,0,3.5,0,5.3c0,0.6,0.3,3.7-3.2,4.9
	c-0.5,0.2-0.7,1-0.6,1.6c0.2,0.8,1,1.2,1.7,1.3c2.5,0.4,5.2,0.1,7.7,0.1c2.5,0,5,0,7.5,0c0,0,0.8,0,0.8,0c1.6,0,3.2-0.4,3.6-1.6
	c0.4-1.1-0.4-1.8-1.8-2.2C180.3-40.2,180.4-41.9,180.4-41.9z M141.1-61.2c-1.8-2.3-7.9-3-13.3-3.1c-1.5,0-2.9,0-4.4-0.1
	c-1.1-0.1-3.6,0-4.3-2.1c-0.5-1.5-0.3-3.6,0.8-4.8c1.1-1.3,3.5-1.2,5.1-1.2c1.7,0,4.1,0.4,4.8,2.2c0.4,1.1,0.1,2.4,0.5,3.5
	c0.1,0.3,0.3,0.6,0.6,0.7c0.2,0.1,0.4,0.1,0.6,0.1c2,0.2,4.1,0.4,6.1,0.3c1,0,4.5,0,4.5,0v6.1C141.8-60.2,141.4-60.8,141.1-61.2z"/>
<g id="XMLID_37_">
	<linearGradient id="XMLID_198_" gradientUnits="userSpaceOnUse" x1="-219.6055" y1="-163.7381" x2="-219.6055" y2="-92.7095">
		<stop  offset="0" style="stop-color:#FFFFFF"/>
		<stop  offset="0.4086" style="stop-color:#FFFFFF;stop-opacity:0"/>
	</linearGradient>
	<path id="XMLID_39_" class="st6" d="M-186.8-119.2v-19.5c0-4.2-0.4-5.7-1.6-8.3c-1.1-2.5-5.4-5.7-10.9-5.3c-5.7,0.3-8.5,3.3-9.3,6
		c0-0.9,0-2,0-2.8c0-1,0-2,0-3c0-1.9,0.1-3.9,0.1-5.8c0-1.6,0-3.1,0-4.7c0-7.8-6.3-14.1-14.1-14.1c-6.9,0-13.2,4.6-14,11.7
		c-0.2,1.9-0.3,3.7-0.3,5.7c0,0.8-0.1,1.5-0.1,2.3c0,0.4,0,0.8,0.3,1.2c0.6,0.9,2.7,0.6,3.6,0.6c1.4,0,3.8-0.1,5.2-0.1
		c0.3,0,0.7,0,0.9-0.3c0.2-0.2,0.2-0.5,0.2-0.8c0-1.9-0.7-3.7-0.7-5.5c0-1.4,0.2-3,1.5-3.9c1-0.7,2.3-0.8,3.4-0.3
		c1.9,1,1.8,2.9,1.8,4.7c0,2,0,4.1,0,6.1c0,3.4,0,6.9,0,10.3c0-0.6,0.4-6.5-7.3-7.4c-4.9-0.6-7.3-0.5-13.1-0.1c-2.3,0.1-5.3,1-7,2.4
		c-1.2,1-2.8,2.9-2.9,4.6c-0.3,3.5-0.5,7.4,1.6,10.3c2.8,3.9,9,5.2,13.4,5.2c1.9,0,4.5,0.1,6.2,0.9c1.8,0.9,1.8,2.7,1.9,4.6
		c0,1.3,0.2,2-0.4,3.2c-1.2,2.2-3.9,2.7-6.1,2.6c-2.1,0-4.6-0.6-6.2-2.2c-1.3-1.3-1.3-3.5-1.2-5.4c0.1-1.3-0.9-2.2-2.2-2.4
		c-1.8-0.3-4.5-0.1-7.6-0.4c-2.2-0.2-4-0.3-4,1c0,1,1.8,0.9,1.8,2.2c0,1.4,0,2.9,0.4,5c0.3,1.6,1,3.8,2.3,5.6
		c3.2,4.5,8.7,5.9,15.6,5.9c2.8,0,5.6-0.1,8.3-0.8c1.3-0.4,2.6-0.9,3.7-1.8c0.5-0.4,1.7-1.4,2.1-2.2c0.6-1.2,0.5-2.2,0.5-2.3
		c0,0.1,0.1,1.1,0.1,1.2c0,2.3,3.5,1.6,4.9,1.6c2.4,0,4.8,0,7.1,0c0.9,0,2,0,2.8-0.5c0.5-0.4,0.9-1.1,0.5-1.7
		c-0.1-0.2-0.3-0.5-0.6-0.5c-2.9,0-2.5-3.4-2.4-4c0-1.2,0-2.4,0-3.6c0-2.3,0-4.6,0-7c0-0.9,0-1.7,0-2.6c0-1.9-0.1-5.9,1-7.5
		c1.1-1.6,3.3-2.4,5.1-1.9c0.7,0.2,1.4,0.5,1.9,1.1c1,1.1,1.2,2.9,1.2,4.3c0,3.5,0.2,8.7,0.2,12.2c0,1.6,0,3.1,0,4.7
		c0,0.5,0.2,3.3-2.8,4.3c-0.5,0.2-0.6,0.9-0.5,1.4c0.1,0.7,0.9,1.1,1.5,1.2c2.2,0.3,4.6,0.1,6.8,0.1c2.2,0,4.4,0,6.6,0
		c0,0,0.7,0,0.7,0c1.4,0,2.8-0.3,3.2-1.4c0.3-1-0.4-1.6-1.6-1.9C-186.9-117.6-186.8-119.2-186.8-119.2z M-221.6-136.3
		c-1.6-2-7-2.7-11.8-2.7c-1.3,0-2.6,0-3.9-0.1c-1-0.1-3.2,0-3.8-1.8c-0.4-1.3-0.3-3.2,0.7-4.2c1-1.1,3.1-1.1,4.5-1.1
		c1.5,0,3.6,0.3,4.2,1.9c0.4,1,0.1,2.1,0.4,3.1c0.1,0.3,0.3,0.5,0.5,0.6c0.2,0.1,0.4,0.1,0.5,0.1c1.8,0.1,3.6,0.3,5.4,0.2
		c0.9,0,3.9,0,3.9,0v5.4C-221-135.4-221.3-135.9-221.6-136.3z"/>
</g>
<g id="XMLID_46_">
	<linearGradient id="XMLID_199_" gradientUnits="userSpaceOnUse" x1="-144.6571" y1="-160.706" x2="-144.6571" y2="-89.6775">
		<stop  offset="0" style="stop-color:#FFFFFF"/>
		<stop  offset="0.4086" style="stop-color:#FFFFFF;stop-opacity:0"/>
	</linearGradient>
	<path id="XMLID_48_" class="st7" d="M-111.8-116.1v-19.5c0-4.2-0.4-5.7-1.6-8.3c-1.1-2.5-5.4-5.7-10.9-5.3c-5.7,0.3-8.5,3.3-9.3,6
		c0-0.9,0-2,0-2.8c0-1,0-2,0-3c0-1.9,0.1-3.9,0.1-5.8c0-1.6,0-3.1,0-4.7c0-7.8-6.3-14.1-14.1-14.1c-6.9,0-13.2,4.6-14,11.7
		c-0.2,1.9-0.3,3.7-0.3,5.7c0,0.8-0.1,1.5-0.1,2.3c0,0.4,0,0.8,0.3,1.2c0.6,0.9,2.7,0.6,3.6,0.6c1.4,0,3.8-0.1,5.2-0.1
		c0.3,0,0.7,0,0.9-0.3c0.2-0.2,0.2-0.5,0.2-0.8c0-1.9-0.7-3.7-0.7-5.5c0-1.4,0.2-3,1.5-3.9c1-0.7,2.3-0.8,3.4-0.3
		c1.9,1,1.8,2.9,1.8,4.7c0,2,0,4.1,0,6.1c0,3.4,0,6.9,0,10.3c0-0.6,0.4-6.5-7.3-7.4c-4.9-0.6-7.3-0.5-13.1-0.1c-2.3,0.1-5.3,1-7,2.4
		c-1.2,1-2.8,2.9-2.9,4.6c-0.3,3.5-0.5,7.4,1.6,10.3c2.8,3.9,9,5.2,13.4,5.2c1.9,0,4.5,0.1,6.2,0.9c1.8,0.9,1.8,2.7,1.9,4.6
		c0,1.3,0.2,2-0.4,3.2c-1.2,2.2-3.9,2.7-6.1,2.6c-2.1,0-4.6-0.6-6.2-2.2c-1.3-1.3-1.3-3.5-1.2-5.4c0.1-1.3-0.9-2.2-2.2-2.4
		c-1.8-0.3-4.5-0.1-7.6-0.4c-2.2-0.2-4-0.3-4,1c0,1,1.8,0.9,1.8,2.2c0,1.4,0,2.9,0.4,5c0.3,1.6,1,3.8,2.3,5.6
		c3.2,4.5,8.7,5.9,15.6,5.9c2.8,0,5.6-0.1,8.3-0.8c1.3-0.4,2.6-0.9,3.7-1.8c0.5-0.4,1.7-1.4,2.1-2.2c0.6-1.2,0.5-2.2,0.5-2.3
		c0,0.1,0.1,1.1,0.1,1.2c0,2.3,3.5,1.6,4.9,1.6c2.4,0,4.8,0,7.1,0c0.9,0,2,0,2.8-0.5c0.5-0.4,0.9-1.1,0.5-1.7
		c-0.1-0.2-0.3-0.5-0.6-0.5c-2.9,0-2.5-3.4-2.4-4c0-1.2,0-2.4,0-3.6c0-2.3,0-4.6,0-7c0-0.9,0-1.7,0-2.6c0-1.9-0.1-5.9,1-7.5
		c1.1-1.6,3.3-2.4,5.1-1.9c0.7,0.2,1.4,0.5,1.9,1.1c1,1.1,1.2,2.9,1.2,4.3c0,3.5,0.2,8.7,0.2,12.2c0,1.6,0,3.1,0,4.7
		c0,0.5,0.2,3.3-2.8,4.3c-0.5,0.2-0.6,0.9-0.5,1.4c0.1,0.7,0.9,1.1,1.5,1.2c2.2,0.3,4.6,0.1,6.8,0.1c2.2,0,4.4,0,6.6,0
		c0,0,0.7,0,0.7,0c1.4,0,2.8-0.3,3.2-1.4c0.3-1-0.4-1.6-1.6-1.9C-112-114.6-111.8-116.1-111.8-116.1z M-146.6-133.2
		c-1.6-2-7-2.7-11.8-2.7c-1.3,0-2.6,0-3.9-0.1c-1-0.1-3.2,0-3.8-1.8c-0.4-1.3-0.3-3.2,0.7-4.2c1-1.1,3.1-1.1,4.5-1.1
		c1.5,0,3.6,0.3,4.2,1.9c0.4,1,0.1,2.1,0.4,3.1c0.1,0.3,0.3,0.5,0.5,0.6c0.2,0.1,0.4,0.1,0.5,0.1c1.8,0.1,3.6,0.3,5.4,0.2
		c0.9,0,3.9,0,3.9,0v5.4C-146-132.3-146.3-132.8-146.6-133.2z"/>
</g>
<g id="XMLID_60_">
	
		<linearGradient id="XMLID_200_" gradientUnits="userSpaceOnUse" x1="-222.0179" y1="-129.7734" x2="-222.0179" y2="-58.7449" gradientTransform="matrix(-1 0 0 -1 -364.4643 -230.1006)">
		<stop  offset="0" style="stop-color:#FFFFFF"/>
		<stop  offset="0.4086" style="stop-color:#FFFFFF;stop-opacity:0"/>
	</linearGradient>
	<path id="XMLID_97_" class="st8" d="M-175.3-144.9v19.5c0,4.2,0.4,5.7,1.6,8.3c1.1,2.5,5.4,5.7,10.9,5.3c5.7-0.3,8.5-3.3,9.3-6
		c0,0.9,0,2,0,2.8c0,1,0,2,0,3c0,1.9-0.1,3.9-0.1,5.8c0,1.6,0,3.1,0,4.7c0,7.8,6.3,14.1,14.1,14.1c6.9,0,13.2-4.6,14-11.7
		c0.2-1.9,0.3-3.7,0.3-5.7c0-0.8,0.1-1.5,0.1-2.3c0-0.4,0-0.8-0.3-1.2c-0.6-0.9-2.7-0.6-3.6-0.6c-1.4,0-3.8,0.1-5.2,0.1
		c-0.3,0-0.7,0-0.9,0.3c-0.2,0.2-0.2,0.5-0.2,0.8c0,1.9,0.7,3.7,0.7,5.5c0,1.4-0.2,3-1.5,3.9c-1,0.7-2.3,0.8-3.4,0.3
		c-1.9-1-1.8-2.9-1.8-4.7c0-2,0-4.1,0-6.1c0-3.4,0-6.9,0-10.3c0,0.6-0.4,6.5,7.3,7.4c4.9,0.6,7.3,0.5,13.1,0.1c2.3-0.1,5.3-1,7-2.4
		c1.2-1,2.8-2.9,2.9-4.6c0.3-3.5,0.5-7.4-1.6-10.3c-2.8-3.9-9-5.2-13.4-5.2c-1.9,0-4.5-0.1-6.2-0.9c-1.8-0.9-1.8-2.7-1.9-4.6
		c0-1.3-0.2-2,0.4-3.2c1.2-2.2,3.9-2.7,6.1-2.6c2.1,0,4.6,0.6,6.2,2.2c1.3,1.3,1.3,3.5,1.2,5.4c-0.1,1.3,0.9,2.2,2.2,2.4
		c1.8,0.3,4.5,0.1,7.6,0.4c2.2,0.2,4,0.3,4-1c0-1-1.8-0.9-1.8-2.2c0-1.4,0-2.9-0.4-5c-0.3-1.6-1-3.8-2.3-5.6
		c-3.2-4.5-8.7-5.9-15.6-5.9c-2.8,0-5.6,0.1-8.3,0.8c-1.3,0.4-2.6,0.9-3.7,1.8c-0.5,0.4-1.7,1.4-2.1,2.2c-0.6,1.2-0.5,2.2-0.5,2.3
		c0-0.1-0.1-1.1-0.1-1.2c0-2.3-3.5-1.6-4.9-1.6c-2.4,0-4.8,0-7.1,0c-0.9,0-2,0-2.8,0.5c-0.5,0.4-0.9,1.1-0.5,1.7
		c0.1,0.2,0.3,0.5,0.6,0.5c2.9,0,2.5,3.4,2.4,4c0,1.2,0,2.4,0,3.6c0,2.3,0,4.6,0,7c0,0.9,0,1.7,0,2.6c0,1.9,0.1,5.9-1,7.5
		c-1.1,1.6-3.3,2.4-5.1,1.9c-0.7-0.2-1.4-0.5-1.9-1.1c-1-1.1-1.2-2.9-1.2-4.3c0-3.5-0.2-8.7-0.2-12.2c0-1.6,0-3.1,0-4.7
		c0-0.5-0.2-3.3,2.8-4.3c0.5-0.2,0.6-0.9,0.5-1.4c-0.1-0.7-0.9-1.1-1.5-1.2c-2.2-0.3-4.6-0.1-6.8-0.1c-2.2,0-4.4,0-6.6,0
		c0,0-0.7,0-0.7,0c-1.4,0-2.8,0.3-3.2,1.4c-0.3,1,0.4,1.6,1.6,1.9C-175.1-146.4-175.3-144.9-175.3-144.9z M-140.5-127.8
		c1.6,2,7,2.7,11.8,2.7c1.3,0,2.6,0,3.9,0.1c1,0.1,3.2,0,3.8,1.8c0.4,1.3,0.3,3.2-0.7,4.2c-1,1.1-3.1,1.1-4.5,1.1
		c-1.5,0-3.6-0.3-4.2-1.9c-0.4-1-0.1-2.1-0.4-3.1c-0.1-0.3-0.3-0.5-0.5-0.6c-0.2-0.1-0.4-0.1-0.5-0.1c-1.8-0.1-3.6-0.3-5.4-0.2
		c-0.9,0-3.9,0-3.9,0v-5.4C-141.1-128.7-140.8-128.2-140.5-127.8z"/>
</g>
<g id="XMLID_87_">
	
		<linearGradient id="XMLID_201_" gradientUnits="userSpaceOnUse" x1="-389.0476" y1="-220.498" x2="-389.0476" y2="-149.4694" gradientTransform="matrix(1 0 0 1 263.631 70.6209)">
		<stop  offset="0" style="stop-color:#FFFFFF"/>
		<stop  offset="0.4086" style="stop-color:#FFFFFF;stop-opacity:0"/>
	</linearGradient>
	<path id="XMLID_122_" class="st9" d="M-92.6-105.3v-19.5c0-4.2-0.4-5.7-1.6-8.3c-1.1-2.5-5.4-5.7-10.9-5.3c-5.7,0.3-8.5,3.3-9.3,6
		c0-0.9,0-2,0-2.8c0-1,0-2,0-3c0-1.9,0.1-3.9,0.1-5.8c0-1.6,0-3.1,0-4.7c0-7.8-6.3-14.1-14.1-14.1c-6.9,0-13.2,4.6-14,11.7
		c-0.2,1.9-0.3,3.7-0.3,5.7c0,0.8-0.1,1.5-0.1,2.3c0,0.4,0,0.8,0.3,1.2c0.6,0.9,2.7,0.6,3.6,0.6c1.4,0,3.8-0.1,5.2-0.1
		c0.3,0,0.7,0,0.9-0.3c0.2-0.2,0.2-0.5,0.2-0.8c0-1.9-0.7-3.7-0.7-5.5c0-1.4,0.2-3,1.5-3.9c1-0.7,2.3-0.8,3.4-0.3
		c1.9,1,1.8,2.9,1.8,4.7c0,2,0,4.1,0,6.1c0,3.4,0,6.9,0,10.3c0-0.6,0.4-6.5-7.3-7.4c-4.9-0.6-7.3-0.5-13.1-0.1c-2.3,0.1-5.3,1-7,2.4
		c-1.2,1-2.8,2.9-2.9,4.6c-0.3,3.5-0.5,7.4,1.6,10.3c2.8,3.9,9,5.2,13.4,5.2c1.9,0,4.5,0.1,6.2,0.9c1.8,0.9,1.8,2.7,1.9,4.6
		c0,1.3,0.2,2-0.4,3.2c-1.2,2.2-3.9,2.7-6.1,2.6c-2.1,0-4.6-0.6-6.2-2.2c-1.3-1.3-1.3-3.5-1.2-5.4c0.1-1.3-0.9-2.2-2.2-2.4
		c-1.8-0.3-4.5-0.1-7.6-0.4c-2.2-0.2-4-0.3-4,1c0,1,1.8,0.9,1.8,2.2c0,1.4,0,2.9,0.4,5c0.3,1.6,1,3.8,2.3,5.6
		c3.2,4.5,8.7,5.9,15.6,5.9c2.8,0,5.6-0.1,8.3-0.8c1.3-0.4,2.6-0.9,3.7-1.8c0.5-0.4,1.7-1.4,2.1-2.2c0.6-1.2,0.5-2.2,0.5-2.3
		c0,0.1,0.1,1.1,0.1,1.2c0,2.3,3.5,1.6,4.9,1.6c2.4,0,4.8,0,7.1,0c0.9,0,2,0,2.8-0.5c0.5-0.4,0.9-1.1,0.5-1.7
		c-0.1-0.2-0.3-0.5-0.6-0.5c-2.9,0-2.5-3.4-2.4-4c0-1.2,0-2.4,0-3.6c0-2.3,0-4.6,0-7c0-0.9,0-1.7,0-2.6c0-1.9-0.1-5.9,1-7.5
		c1.1-1.6,3.3-2.4,5.1-1.9c0.7,0.2,1.4,0.5,1.9,1.1c1,1.1,1.2,2.9,1.2,4.3c0,3.5,0.2,8.7,0.2,12.2c0,1.6,0,3.1,0,4.7
		c0,0.5,0.2,3.3-2.8,4.3c-0.5,0.2-0.6,0.9-0.5,1.4c0.1,0.7,0.9,1.1,1.5,1.2c2.2,0.3,4.6,0.1,6.8,0.1c2.2,0,4.4,0,6.6,0
		c0,0,0.7,0,0.7,0c1.4,0,2.8-0.3,3.2-1.4c0.3-1-0.4-1.6-1.6-1.9C-92.7-103.8-92.6-105.3-92.6-105.3z M-127.4-122.4
		c-1.6-2-7-2.7-11.8-2.7c-1.3,0-2.6,0-3.9-0.1c-1-0.1-3.2,0-3.8-1.8c-0.4-1.3-0.3-3.2,0.7-4.2c1-1.1,3.1-1.1,4.5-1.1
		c1.5,0,3.6,0.3,4.2,1.9c0.4,1,0.1,2.1,0.4,3.1c0.1,0.3,0.3,0.5,0.5,0.6c0.2,0.1,0.4,0.1,0.5,0.1c1.8,0.1,3.6,0.3,5.4,0.2
		c0.9,0,3.9,0,3.9,0v5.4C-126.8-121.5-127.1-122-127.4-122.4z"/>
</g>
<g id="XMLID_53_">
	
		<linearGradient id="XMLID_202_" gradientUnits="userSpaceOnUse" x1="-144.8588" y1="-112.6664" x2="-144.8588" y2="-41.6379" gradientTransform="matrix(-1 0 0 -1 -364.4643 -230.1006)">
		<stop  offset="0" style="stop-color:#FFFFFF"/>
		<stop  offset="0.4086" style="stop-color:#FFFFFF;stop-opacity:0"/>
	</linearGradient>
	<path id="XMLID_93_" class="st10" d="M-252.4-162v19.5c0,4.2,0.4,5.7,1.6,8.3c1.1,2.5,5.4,5.7,10.9,5.3c5.7-0.3,8.5-3.3,9.3-6
		c0,0.9,0,2,0,2.8c0,1,0,2,0,3c0,1.9-0.1,3.9-0.1,5.8c0,1.6,0,3.1,0,4.7c0,7.8,6.3,14.1,14.1,14.1c6.9,0,13.2-4.6,14-11.7
		c0.2-1.9,0.3-3.7,0.3-5.7c0-0.8,0.1-1.5,0.1-2.3c0-0.4,0-0.8-0.3-1.2c-0.6-0.9-2.7-0.6-3.6-0.6c-1.4,0-3.8,0.1-5.2,0.1
		c-0.3,0-0.7,0-0.9,0.3c-0.2,0.2-0.2,0.5-0.2,0.8c0,1.9,0.7,3.7,0.7,5.5c0,1.4-0.2,3-1.5,3.9c-1,0.7-2.3,0.8-3.4,0.3
		c-1.9-1-1.8-2.9-1.8-4.7c0-2,0-4.1,0-6.1c0-3.4,0-6.9,0-10.3c0,0.6-0.4,6.5,7.3,7.4c4.9,0.6,7.3,0.5,13.1,0.1c2.3-0.1,5.3-1,7-2.4
		c1.2-1,2.8-2.9,2.9-4.6c0.3-3.5,0.5-7.4-1.6-10.3c-2.8-3.9-9-5.2-13.4-5.2c-1.9,0-4.5-0.1-6.2-0.9c-1.8-0.9-1.8-2.7-1.9-4.6
		c0-1.3-0.2-2,0.4-3.2c1.2-2.2,3.9-2.7,6.1-2.6c2.1,0,4.6,0.6,6.2,2.2c1.3,1.3,1.3,3.5,1.2,5.4c-0.1,1.3,0.9,2.2,2.2,2.4
		c1.8,0.3,4.5,0.1,7.6,0.4c2.2,0.2,4,0.3,4-1c0-1-1.8-0.9-1.8-2.2c0-1.4,0-2.9-0.4-5c-0.3-1.6-1-3.8-2.3-5.6
		c-3.2-4.5-8.7-5.9-15.6-5.9c-2.8,0-5.6,0.1-8.3,0.8c-1.3,0.4-2.6,0.9-3.7,1.8c-0.5,0.4-1.7,1.4-2.1,2.2c-0.6,1.2-0.5,2.2-0.5,2.3
		c0-0.1-0.1-1.1-0.1-1.2c0-2.3-3.5-1.6-4.9-1.6c-2.4,0-4.8,0-7.1,0c-0.9,0-2,0-2.8,0.5c-0.5,0.4-0.9,1.1-0.5,1.7
		c0.1,0.2,0.3,0.5,0.6,0.5c2.9,0,2.5,3.4,2.4,4c0,1.2,0,2.4,0,3.6c0,2.3,0,4.6,0,7c0,0.9,0,1.7,0,2.6c0,1.9,0.1,5.9-1,7.5
		c-1.1,1.6-3.3,2.4-5.1,1.9c-0.7-0.2-1.4-0.5-1.9-1.1c-1-1.1-1.2-2.9-1.2-4.3c0-3.5-0.2-8.7-0.2-12.2c0-1.6,0-3.1,0-4.7
		c0-0.5-0.2-3.3,2.8-4.3c0.5-0.2,0.6-0.9,0.5-1.4c-0.1-0.7-0.9-1.1-1.5-1.2c-2.2-0.3-4.6-0.1-6.8-0.1c-2.2,0-4.4,0-6.6,0
		c0,0-0.7,0-0.7,0c-1.4,0-2.8,0.3-3.2,1.4c-0.3,1,0.4,1.6,1.6,1.9C-252.3-163.5-252.4-162-252.4-162z M-217.6-144.9
		c1.6,2,7,2.7,11.8,2.7c1.3,0,2.6,0,3.9,0.1c1,0.1,3.2,0,3.8,1.8c0.4,1.3,0.3,3.2-0.7,4.2c-1,1.1-3.1,1.1-4.5,1.1
		c-1.5,0-3.6-0.3-4.2-1.9c-0.4-1-0.1-2.1-0.4-3.1c-0.1-0.3-0.3-0.5-0.5-0.6c-0.2-0.1-0.4-0.1-0.5-0.1c-1.8-0.1-3.6-0.3-5.4-0.2
		c-0.9,0-3.9,0-3.9,0v-5.4C-218.2-145.8-217.9-145.3-217.6-144.9z"/>
</g>
<line id="XMLID_15_" x1="384.1" y1="-129.1" x2="385.6" y2="-129.6"/>
<path id="XMLID_26_" d="M128.9-204.8v-23.3c0-4.8-0.2-6.7-1-9.7c-1.3-5.1-10.7-7.8-15.6-6.3c-4.5,1.4-7.2,4.3-8,7.4
	c0-1.1,0-2.3,0-3.2c0-1.1,0-2.2,0-3.4c0-2.2,0.1-4.4,0.1-6.6c0-1.8,0-3.5,0-5.3c0-8.8-7.1-16-16-16c-7.8,0-14.9,5.2-15.8,13.2
	c-0.2,2.2-0.3,4.2-0.3,6.4c0,0.9-0.1,1.7-0.1,2.6c0,0.5,0,0.9,0.3,1.3c0.7,1,3,0.7,4.1,0.7c1.6,0,4.3-0.1,5.9-0.1c0.4,0,0.8,0,1-0.3
	c0.2-0.2,0.2-0.6,0.2-0.9c0-2.1-0.8-4.2-0.8-6.3c0-1.6,0.2-3.4,1.7-4.4c1.1-0.8,2.6-0.9,3.8-0.3c2.2,1.1,2.1,3.2,2.1,5.3
	c0,2.3,0,4.6,0,6.9c0,3.9,0,7.8,0,11.7c0-0.7,0.4-7.4-8.3-8.4c-5.5-0.6-8.2-0.5-14.8-0.2c-2.6,0.1-6,1.1-7.9,2.8
	c-1.3,1.2-3.2,3.3-3.3,5.2c-0.3,4-0.5,8.3,1.8,11.7c3.1,4.4,10.2,5.8,15.1,5.9c2.1,0,5,0.1,7,1c2.1,1,2,3,2.1,5.1
	c0.1,1.5,0.3,2.3-0.5,3.6c-1.4,2.5-4.4,3-6.9,3c-2.4-0.1-5.2-0.7-7-2.5c-1.5-1.5-1.4-4-1.3-6.1c0.1-1.5-1-2.5-2.4-2.7
	c-2-0.3-5.1-0.1-8.6-0.4c-2.5-0.3-4.5-0.3-4.5,1.2c0,1.1,2,1,2.1,2.5c0,1.6,0.1,3.2,0.5,5.6c0.3,1.8,1.2,4.3,2.6,6.3
	c3.7,5.1,9.9,6.6,17.7,6.6c3.1,0,6.4-0.1,9.4-1c1.5-0.4,3-1,4.2-2c0.6-0.5,1.9-1.6,2.3-2.4c0.7-1.4,0.6-2.5,0.6-2.6
	c0,0.1,0.1,1.2,0.1,1.3c0,2.6,4,1.8,5.6,1.8c2.7,0,5.4,0,8.1,0c1,0,2.3,0,3.1-0.6c0.6-0.4,1-1.3,0.6-1.9c-0.1-0.3-0.3-0.6-0.6-0.6
	c-3.3,0-2.8-3.9-2.8-4.5c0-1.3,0-2.7,0-4c0-2.6,0-5.3,0-7.9c0-1,0-1.9,0-2.9c0-2.1,0.5-6.9,1.3-8.9c1.3-3.5,3.9-5.7,7.1-5
	c3.7,0.9,2.2,5.4,2.2,11.3c0,3.9,0,7.8,0,11.8c0,1.8,0,3.5,0,5.3c0,0.6,0.3,3.1-0.3,3.3c-0.5,0.2-1,0.4-1.5,0.7
	c-0.5,0.2-1.1,0.5-1.5,0.9s-0.7,1-0.6,1.6c0.2,0.8,1,1.2,1.7,1.3c2.5,0.4,5.2,0.1,7.7,0.1c2.5,0,5,0,7.5,0c0,0,0.8,0,0.8,0
	c1.6,0,3.2-0.4,3.6-1.6C133-203.2,131-204.6,128.9-204.8z M89.5-225.4c-1.8-2.3-7.9-3-13.3-3.1c-1.5,0-2.9,0-4.4-0.1
	c-1.1-0.1-3.6,0-4.3-2.1c-0.5-1.5-0.3-3.6,0.8-4.8c1.1-1.3,3.5-1.2,5.1-1.2c1.7,0,4.1,0.4,4.8,2.2c0.4,1.1,0.1,2.4,0.5,3.5
	c0.1,0.3,0.3,0.6,0.6,0.7c0.2,0.1,0.4,0.1,0.6,0.1c2,0.2,4.1,0.4,6.1,0.3c1,0,4.5,0,4.5,0v6.1C90.2-224.4,89.9-224.9,89.5-225.4z"/>
<line id="XMLID_25_" x1="110.1" y1="-205.1" x2="111.6" y2="-205.6"/>
<linearGradient id="XMLID_203_" gradientUnits="userSpaceOnUse" x1="-115.8678" y1="-160.721" x2="-115.8678" y2="-138.1252">
	<stop  offset="0" style="stop-color:#FFFFFF"/>
	<stop  offset="0.3333" style="stop-color:#FFFFFF;stop-opacity:0"/>
</linearGradient>
<path id="XMLID_45_" class="st11" d="M-101.4-150.6c0-7-7.1-14.3-15.4-14.3c-7.3,0-13,5.7-13.9,12.1c-0.2,1.7-0.2,2.5-0.2,4.2
	c0,0.7-0.1,1.4-0.1,2.1c0,0.4,0,0.8,0.3,1c0.7,0.8,2.9,0.5,3.9,0.5c1.5,0,2.2,0.1,3.7,0.2c0.3,0,0.7,0,1-0.2
	c0.2-0.2,0.2-0.5,0.2-0.7c0-1.7-0.3-3.9-0.3-5.6c0-1.3,1.1-2.5,2.4-3.3c1-0.6,2.9-0.5,4,0c2,0.9,3,2.6,3,4.2c0,1.8,0,3.7,0,5.5
	c0,0.5,0,1,0,1.4h11.9C-100.7-144.7-101.4-149.2-101.4-150.6z"/>
<linearGradient id="XMLID_204_" gradientUnits="userSpaceOnUse" x1="15.9691" y1="-171.6804" x2="15.9691" y2="-148.3028">
	<stop  offset="0" style="stop-color:#FFFFFF"/>
	<stop  offset="0.3333" style="stop-color:#FFFFFF;stop-opacity:0"/>
</linearGradient>
<path id="XMLID_36_" class="st12" d="M8.6-163.6c0,0-0.5-6,7.9-7.3c8.5-1.3,9,5.3,2.3,6.6C12.2-163,12.1-160.5,8.6-163.6z"/>
<path id="XMLID_34_" class="st13" d="M51.5,39.5"/>
<radialGradient id="XMLID_205_" cx="53.8531" cy="59.2196" r="17.513" gradientUnits="userSpaceOnUse">
	<stop  offset="0" style="stop-color:#434343"/>
	<stop  offset="0.9946" style="stop-color:#B6B8BA"/>
</radialGradient>
<path id="XMLID_67_" class="st14" d="M53.7,79.7C53.4,68.3,53.2,39,53.2,39h-1c0,0-0.9,3-0.4,4.1c1,2.5,0.4,9.4,0.4,9.4
	c0,0.4-0.3,0.7-0.7,0.7c-0.4,0-0.8,0-1.2,0c-0.9,0-1.7,0-2.2,0c-0.4,0-0.7,0-1.1,0c-1.7,0-3.3-0.2-5-0.3c-0.2,0-0.4,0-0.6-0.1
	c-0.3-0.1-0.5-0.4-0.6-0.7c-0.4-1.1-0.1-2.4-0.5-3.5c-0.7-1.8-3.1-2.1-4.8-2.2c-0.3,0-0.6,0-0.9,0c-1.5,0-3.3,0.2-4.2,1.2
	c-1.1,1.2-1.2,3.3-0.8,4.8c0.5,1.6,2.2,1.9,3.4,2c1.6,0.1,3.1,0.1,4.7,0.1c5.5,0,12,0.7,13.8,3.1c0.3,0.4,0.6,0.9,0.8,1.4
	c0.2,1.4,0.2,3.8,0.2,7.4c0,12.7,2.1,16.1-2.9,18.9c0.2,0.3,3-1.7,3.8-1.4c1.3,0.5,3,0,3.3-0.8C54.5,83.1,53.8,82.5,53.7,79.7z
	 M38.3,52.6l-0.8,0c-1.2,0-2.3,0-3.5-0.1l-0.3,0c-1.2,0-2-0.2-2.1-0.6c-0.3-1-0.2-2.3,0.3-2.9c0.2-0.2,0.7-0.6,2.8-0.6
	c0.3,0,0.6,0,0.8,0c2,0.1,2.8,0.5,3,0.9c0.1,0.2,0.1,0.7,0.1,1.1c0,0.6,0,1.4,0.3,2.2C38.6,52.6,38.4,52.6,38.3,52.6z"/>
<path id="XMLID_69_" class="st15" d="M-17.7-93.2c8.7,0,15.8,7,16,15.7c0,1.8,0,3.6,0,5.4c0,2.3-0.1,4.5-0.1,6.8c0,1.1,0,2.2,0,3.4
	c0,0.9,0,2.1,0,3.2c0.8-3.1,4-6.3,10.5-6.7c0.3,0,0.6,0,0.9,0c5.8,0,10.2,3.4,11.4,6.1c1.3,2.9,1.8,4.6,1.8,9.4v22.1
	c0,0-0.2,1.7,1.7,2.2c1.4,0.4,2.2,1.1,1.8,2.2c-0.4,1.2-2,1.5-3.6,1.6c0,0-0.8,0-0.8,0c-2.5,0-5,0-7.5,0c-1.4,0-2.9,0.1-4.3,0.1
	c-1.2,0-2.3,0-3.4-0.2C6-22.3,5.2-22.8,5-23.5c-0.1-0.6,0-1.4,0.6-1.6C9-26.3,8.8-29.4,8.8-30c0-1.8,0-3.5,0-5.3
	c0-3.9-0.2-9.9-0.2-13.8c0-1.7-0.2-3.6-1.3-4.9c-0.6-0.6-1.3-1-2.1-1.2c-0.4-0.1-0.8-0.2-1.2-0.2c-1.7,0-3.6,0.9-4.5,2.3
	c-1.2,1.8-1.1,6.4-1.1,8.5c0,1,0,1.9,0,2.9c0,2.6,0,5.3,0,7.9c0,1.3,0,2.7,0,4c0,0.6-0.5,4.5,2.7,4.5c0,0,0,0,0,0c0,0,0,0,0,0
	c0.3,0,0.5,0.3,0.6,0.6c0.4,0.6,0,1.5-0.6,1.9C0.2-22.1-1-22.1-2-22.1c-2.7,0-5.4,0-8.1,0c-0.6,0-1.6,0.1-2.5,0.1
	c-1.5,0-3-0.3-3-1.9c0-0.1,0-1.2-0.1-1.3c0,0,0.1,1.2-0.6,2.6c-0.4,0.9-1.7,2-2.3,2.4c-1.3,0.9-2.7,1.6-4.2,2c-3,0.9-6.3,1-9.4,1
	c-7.8,0-14-1.5-17.7-6.6c-1.4-2-2.3-4.6-2.6-6.3c-0.4-2.4-0.4-4-0.5-5.6c0-1.5-2.1-1.4-2.1-2.5c0-1,0.9-1.3,2.3-1.3
	c0.6,0,1.4,0.1,2.2,0.1c3.5,0.4,6.5,0.1,8.6,0.4c1.4,0.2,2.5,1.6,2.4,3.1c-0.1,2-0.1,4.3,1.3,5.8c1.8,1.8,4.7,2.4,7,2.5
	c0.1,0,0.2,0,0.3,0c2.4,0,5.3-0.6,6.6-3c0.4-0.8,0.6-1.7,0.5-2.6c-0.2-2.5,0.2-4.9-2.2-6.1c-2-0.9-4.9-1-7-1c-4.9,0-12-1.4-15.1-5.9
	c-2.4-3.3-2.3-6.8-1.9-10.8c0.2-1.9,2.1-4.9,3.4-6.1c1.9-1.7,5.7-3,8.3-3.4c3.3-0.5,5.1-0.3,7.2-0.2c2.5,0.2,4.4,0.4,7.3,0.9
	c7.6,1.4,8.2,6.1,8.3,7.8c0,0.2,0,0.4,0,0.5c0-0.1,0-0.3,0-0.5c0-3.7,0-7.4,0-11.1c0-2.3,0-4.6,0-6.9c0-2,0.1-4.2-2.1-5.3
	c-0.5-0.3-1.1-0.4-1.7-0.4c-0.8,0-1.5,0.2-2.2,0.7c-1.5,1-1.7,2.8-1.7,4.4c0,2.1,0.7,3.5,0.7,5.6c0,0.3,0,0.7-0.2,0.9
	c-0.2,0.3-0.7,0.3-1,0.3c0,0,0,0,0,0c0,0,0,0-0.1,0c-1.6,0-4.2,0.1-5.8,0.1c-0.4,0-1,0.1-1.7,0.1c-1,0-2-0.1-2.4-0.7
	c-0.3-0.4-0.3-0.9-0.3-1.3c0-0.9,0-1.7,0.1-2.6c0-2.2,0.2-3.6,0.5-5.8C-32.6-87.9-25.5-93.2-17.7-93.2 M-17.7-95.2
	c-9.2,0-17.5,6.2-18.4,14.7c-0.2,2.2-0.3,4.3-0.4,6.6c0,0.3,0,0.6,0,0.9c0,0.6,0,1.2,0,1.8c0,0.5,0,1.6,0.8,2.6c0,0,0,0,0,0
	c-1.2-0.5-4,0.2-6.3,0.8c-2.6,0.7-4.4,1.6-6.9,3.7c-1.9,1.9-3.3,4.8-3.5,7.9c-0.4,4.3,0,7.1,2.7,11c1.2,1.7,2.8,3,4.6,3.9
	c-0.2,0-0.3,0-0.5,0c-1.4,0-3.1-0.1-4.8-0.2c-0.7-0.1-1.6-0.2-2.4-0.2c-1,0-2.5,0.1-3.5,1.1c-0.6,0.6-0.9,1.4-0.9,2.2
	c0,1.6,1.3,2.4,1.9,2.7c0.1,0,0.1,0.1,0.2,0.1l0,0.1c0,1.5,0.1,3.2,0.5,5.5c0.2,0.9,0.9,4.2,3,7.1c4.7,6.6,12.8,7.5,19.3,7.5
	c3,0,6.6-0.1,9.9-1c1.9-0.5,3.5-1.3,4.9-2.3c0.4-0.3,1.3-1,2.1-1.9c0.7,0.3,1.6,0.5,2.8,0.5c0.6,0,1.2,0,1.7-0.1c0.3,0,0.6,0,0.8,0
	l8.1,0c1.2,0,2.9,0,4.3-0.9c0.5-0.3,0.9-0.7,1.1-1.2c0.6,1,1.7,1.8,3.1,2c1.1,0.2,2.3,0.2,3.7,0.2c0.8,0,1.5,0,2.3,0
	c0.7,0,1.4,0,2.1,0l1.6,0c2,0,3.9,0,5.9,0c0.2,0,0.5,0,0.9,0l0,0c3.7-0.1,5-1.7,5.4-3c0.3-0.9,0.2-1.9-0.2-2.7c-0.5-1-1.6-1.7-3-2.1
	c-0.2,0-0.2-0.1-0.2-0.1l0-0.1l0-0.1l0.7-22c0-5-0.5-7-2-10.2C21.6-64.6,16.1-68,9.7-68c-0.3,0-0.7,0-1,0c-3.6,0.2-6.1,1.5-8,2.9
	c0-0.2,0-0.3,0-0.5c0-0.8,0-1.5,0-2.3c0-1.4,0.1-2.9,0.1-4.3v-5.3C0.7-87.4-7.8-95.2-17.7-95.2L-17.7-95.2z M-21.5-67.6
	c0.3-0.1,1.8-0.9,1.5-2.9c0-1.3-0.2-2.4-0.5-3.5c-0.2-1-1.4-4.3,0.2-5.5c0.3-0.2,0.6-0.3,1-0.3c0.3,0,0.5,0.1,0.8,0.2
	c0.8,0.4,0.9,1,0.9,3.2l0,7.2l0,3.2C-18.5-67.1-19.8-67.4-21.5-67.6L-21.5-67.6z M0.8-27.1c-0.1,0-0.4,0-0.5-0.1
	C0.2-27.4,0-27.8,0-29.3c0-0.1,0-0.2,0-0.3c0-1.3,0-2.7,0-4c0-1,0-2,0-3c0-1.6,0-3.2,0-4.8v-2.9l0-0.5c0-1.6,0-5.7,0.8-6.9
	c0.6-0.8,1.7-1.4,2.9-1.4c0.3,0,0.5,0,0.7,0.1c0.5,0.1,0.9,0.4,1.2,0.6c0.7,0.8,0.8,2.3,0.8,3.5c0,2,0,4.5,0.1,6.9
	c0,2.4,0.1,4.9,0.1,6.9v5.3l0,0.2c0,1.6-0.5,2.4-1.8,2.8c-0.7,0.2-1.2,0.7-1.5,1.3C2.9-26.1,2.2-27.1,0.8-27.1
	C0.8-27.1,0.8-27.1,0.8-27.1L0.8-27.1z M-30.9-29.7c-0.1,0-0.2,0-0.3,0c-2.4-0.1-4.5-0.8-5.7-1.9c-0.9-0.9-0.8-2.7-0.7-4.6
	c0.1-1-0.2-2-0.7-2.8c2.3,0.4,4.3,0.5,5.4,0.5c1.6,0,4.5,0,6.1,0.8c0.8,0.4,0.9,1,1,3.1l0,0.3c0,0.3,0,0.5,0,0.7
	c0.1,1,0.1,1.2-0.3,1.8C-27-30-29.2-29.7-30.9-29.7L-30.9-29.7z"/>
<path id="XMLID_68_" class="st13" d="M-17.3-65.8"/>
<path id="XMLID_57_" class="st15" d="M-15.1-25.6c-0.3-11.3-0.6-40.6-0.6-40.6h-1c0,0-0.9,3-0.4,4.1c1,2.5,0.4,9.4,0.4,9.4
	c0,0.4-0.3,0.7-0.7,0.7c-0.4,0-0.8,0-1.2,0c-0.9,0-1.7,0-2.2,0c-0.4,0-0.7,0-1.1,0c-1.7,0-3.3-0.2-5-0.3c-0.2,0-0.4,0-0.6-0.1
	c-0.3-0.1-0.5-0.4-0.6-0.7c-0.4-1.1-0.1-2.4-0.5-3.5c-0.7-1.8-3.1-2.1-4.8-2.2c-0.3,0-0.6,0-0.9,0c-1.5,0-3.3,0.2-4.2,1.2
	c-1.1,1.2-1.2,3.3-0.8,4.8c0.5,1.6,2.2,1.9,3.4,2c1.6,0.1,3.1,0.1,4.7,0.1c5.5,0,12,0.7,13.8,3.1c0.3,0.4,0.6,0.9,0.8,1.4
	c0.2,1.4,0.1,3.5,0.1,7.2c0,4.7,2.2,16.4-2.8,19.1c0.2,0.3,3-1.7,3.8-1.4c1.3,0.5,3,0,3.3-0.8C-14.4-22.1-15-22.8-15.1-25.6z
	 M-30.6-52.6l-0.8,0c-1.2,0-2.3,0-3.5-0.1l-0.3,0c-1.2,0-2-0.2-2.1-0.6c-0.3-1-0.2-2.3,0.3-2.9c0.2-0.2,0.7-0.6,2.8-0.6
	c0.3,0,0.6,0,0.8,0c2,0.1,2.8,0.5,3,0.9c0.1,0.2,0.1,0.7,0.1,1.1c0,0.6,0,1.4,0.3,2.2C-30.2-52.6-30.4-52.6-30.6-52.6z"/>
<g id="XMLID_91_">
	<radialGradient id="XMLID_206_" cx="-14.7999" cy="-67.3566" r="6.768" gradientUnits="userSpaceOnUse">
		<stop  offset="5.376344e-002" style="stop-color:#434343"/>
		<stop  offset="0.586" style="stop-color:#DEDFE0"/>
	</radialGradient>
	<path id="XMLID_100_" class="st16" d="M-33-66.7h3.5C-30.6-66.7-31.7-66.7-33-66.7z"/>
	<radialGradient id="XMLID_207_" cx="-14.7999" cy="-67.3566" r="6.768" gradientUnits="userSpaceOnUse">
		<stop  offset="5.376344e-002" style="stop-color:#434343"/>
		<stop  offset="0.586" style="stop-color:#DEDFE0"/>
	</radialGradient>
	<path id="XMLID_101_" class="st17" d="M-1.7-72.5c0-1.8,0-3.5,0-5.3c0-8.8-7.1-16-16-16c-7.8,0-14.9,5.2-15.8,13.2
		c-0.2,2.2-0.3,4.2-0.3,6.4c0,0.9-0.1,1.7-0.1,2.6c0,0.5,0,0.9,0.3,1.3c0.7,1,3,0.7,4.1,0.7c1.6,0,4.3-0.1,5.9-0.1
		c0.4,0,0.8,0,1-0.3c0.2-0.2,0.2-0.6,0.2-0.9c0-2.1-0.8-4.2-0.8-6.3c0-1.6,0.2-3.4,1.7-4.4c1.1-0.8,2.6-0.9,3.8-0.3
		c2.2,1.1,2.1,3.2,2.1,5.3c0,2.3,0,4.6,0,6.9c0,1,0,1.9,0,2.9h13.8C-1.8-68.6-1.7-70.6-1.7-72.5z"/>
</g>
</svg>
